<?xml version="1.0" encoding="UTF-8"?><svg id="Layer_1" xmlns="http://www.w3.org/2000/svg" viewBox="0 0 24 23.41"><defs><style>.cls-1{fill:#e3e4e0;}</style></defs><path class="cls-1" d="M12,0C5.37,0,0,5.37,0,12c0,5.3,3.44,9.8,8.21,11.39,.6,.11,.79-.26,.79-.58v-2.23c-3.34,.73-4.03-1.42-4.03-1.42-.55-1.39-1.33-1.76-1.33-1.76-1.09-.75,.08-.73,.08-.73,1.2,.08,1.84,1.24,1.84,1.24,1.07,1.83,2.81,1.3,3.49,1,.11-.77,.42-1.31,.76-1.6-2.66-.31-5.47-1.33-5.47-5.93,0-1.31,.47-2.38,1.24-3.22-.12-.3-.53-1.52,.12-3.18,0,0,1.01-.32,3.3,1.23,.96-.27,1.98-.4,3-.4,1.02,0,2.05,.14,3.01,.4,2.29-1.55,3.3-1.23,3.3-1.23,.65,1.65,.24,2.87,.12,3.18,.77,.84,1.24,1.91,1.24,3.22,0,4.61-2.81,5.62-5.48,5.92,.43,.37,.82,1.1,.82,2.22v3.29c0,.32,.19,.69,.8,.58,4.77-1.59,8.2-6.09,8.2-11.39C24,5.37,18.63,0,12,0Z"/></svg>